# Blender 5.1.2
# www.blender.org
mtllib stairs.mtl
o Imported_Stairs.011
v 1.000000 0.666666 -0.666667
v 1.000000 0.666666 -0.333333
v 1.000000 0.333333 -0.666667
v 1.000000 -0.000000 -0.666667
v 1.000000 -0.000000 -1.000000
v 1.000000 0.333333 -1.000000
v 1.000000 -0.000000 -0.333333
v 1.000000 0.999999 -0.000000
v 1.000000 0.999999 -0.333333
v 1.000000 0.000000 0.000000
v 1.000000 1.333334 0.333333
v 1.000000 1.333334 -0.000000
v 1.000000 0.000000 0.333333
v 1.000000 1.666666 0.666667
v 1.000000 1.666666 0.333333
v 1.000000 0.000000 0.666667
v 1.000000 2.000000 1.000000
v 1.000000 0.000000 1.000000
v 1.000000 2.000000 0.666667
v -1.000000 0.666666 -0.666667
v -1.000000 0.333333 -0.666667
v -1.000000 0.666666 -0.333333
v -1.000000 -0.000000 -0.333333
v -1.000000 -0.000000 -0.666667
v -1.000000 0.333333 -1.000000
v -1.000000 -0.000000 -1.000000
v -1.000000 0.000000 0.000000
v -1.000000 0.999999 -0.000000
v -1.000000 0.999999 -0.333333
v -1.000000 0.000000 0.333333
v -1.000000 1.333334 0.333333
v -1.000000 1.333334 -0.000000
v -1.000000 0.000000 0.666667
v -1.000000 1.666666 0.666667
v -1.000000 1.666666 0.333333
v -1.000000 0.000000 1.000000
v -1.000000 2.000000 1.000000
v -1.000000 2.000000 0.666667
v 1.000000 -0.000000 -1.000000
v -1.000000 -0.000000 -1.000000
v 1.000000 0.333333 -1.000000
v -1.000000 0.333333 -1.000000
v 1.000000 0.333333 -1.000000
v -1.000000 0.333333 -1.000000
v 1.000000 0.333333 -0.666667
v -1.000000 0.333333 -0.666667
v 1.000000 0.333333 -0.666667
v -1.000000 0.333333 -0.666667
v 1.000000 0.666666 -0.666667
v -1.000000 0.666666 -0.666667
v 1.000000 0.666666 -0.666667
v -1.000000 0.666666 -0.666667
v 1.000000 0.666666 -0.333333
v -1.000000 0.666666 -0.333333
v 1.000000 0.666666 -0.333333
v -1.000000 0.666666 -0.333333
v 1.000000 0.999999 -0.333333
v -1.000000 0.999999 -0.333333
v 1.000000 0.999999 -0.333333
v -1.000000 0.999999 -0.333333
v 1.000000 0.999999 -0.000000
v -1.000000 0.999999 -0.000000
v 1.000000 0.999999 -0.000000
v -1.000000 0.999999 -0.000000
v 1.000000 1.333334 -0.000000
v -1.000000 1.333334 -0.000000
v 1.000000 1.333334 -0.000000
v -1.000000 1.333334 -0.000000
v 1.000000 1.333334 0.333333
v -1.000000 1.333334 0.333333
v 1.000000 1.333334 0.333333
v -1.000000 1.333334 0.333333
v 1.000000 1.666666 0.333333
v -1.000000 1.666666 0.333333
v 1.000000 1.666666 0.333333
v -1.000000 1.666666 0.333333
v 1.000000 1.666666 0.666667
v -1.000000 1.666666 0.666667
v 1.000000 1.666666 0.666667
v -1.000000 1.666666 0.666667
v 1.000000 2.000000 0.666667
v -1.000000 2.000000 0.666667
v 1.000000 2.000000 0.666667
v -1.000000 2.000000 0.666667
v 1.000000 2.000000 1.000000
v -1.000000 2.000000 1.000000
v -1.000000 0.000000 1.000000
v 1.000000 0.000000 1.000000
v -1.000000 2.000000 1.000000
v 1.000000 2.000000 1.000000
vn 1.0000 -0.0000 -0.0000
vn -1.0000 -0.0000 -0.0000
vn -0.0000 -0.0000 -1.0000
vn -0.0000 1.0000 -0.0000
vn -0.0000 -0.0000 1.0000
vt -2.166667 1.222870
vt -2.333333 1.222870
vt -2.166667 1.172840
vt -2.166667 1.122812
vt -2.000000 1.122812
vt -2.000000 1.172840
vt -2.333333 1.122812
vt -2.500000 1.272898
vt -2.333333 1.272898
vt -2.500000 1.122812
vt -2.666667 1.322926
vt -2.500000 1.322926
vt -2.666667 1.122812
vt -2.833333 1.372956
vt -2.666667 1.372956
vt -2.833333 1.122812
vt -3.000000 1.422984
vt -3.000000 1.122812
vt -2.833333 1.422984
vt 2.166667 1.225733
vt 2.166667 1.175702
vt 2.333333 1.225733
vt 2.333333 1.125674
vt 2.166667 1.125674
vt 2.000000 1.175702
vt 2.000000 1.125674
vt 2.500000 1.125674
vt 2.500000 1.275761
vt 2.333333 1.275761
vt 2.666667 1.125674
vt 2.666667 1.325788
vt 2.500000 1.325788
vt 2.833333 1.125674
vt 2.833333 1.375819
vt 2.666667 1.375819
vt 3.000000 1.125674
vt 3.000000 1.425847
vt 2.833333 1.425847
vt -3.000000 0.183319
vt -2.000000 0.183319
vt -3.000000 0.233348
vt -2.000000 0.233348
vt -3.000000 0.366638
vt -2.000000 0.366638
vt -3.000000 0.466695
vt -2.000000 0.466695
vt -3.000000 0.599986
vt -2.000000 0.599986
vt -3.000000 0.650014
vt -2.000000 0.650014
vt -3.000000 1.199972
vt -2.000000 1.199972
vt -3.000000 1.300028
vt -2.000000 1.300028
vt -3.000000 1.016653
vt -2.000000 1.016653
vt -3.000000 1.066680
vt -2.000000 1.066680
vt -3.000000 2.033304
vt -2.000000 2.033304
vt -3.000000 2.133363
vt -2.000000 2.133363
vt -3.000000 1.433320
vt -2.000000 1.433320
vt -3.000000 1.483347
vt -2.000000 1.483347
vt -3.000000 2.866637
vt -2.000000 2.866637
vt -3.000000 2.966695
vt -2.000000 2.966695
vt -3.000000 1.849985
vt -2.000000 1.849985
vt -3.000000 1.900015
vt -2.000000 1.900015
vt -3.000000 3.699972
vt -2.000000 3.699972
vt -3.000000 3.800028
vt -2.000000 3.800028
vt -3.000000 2.266653
vt -2.000000 2.266653
vt -3.000000 2.316680
vt -2.000000 2.316680
vt -3.000000 4.533304
vt -2.000000 4.533304
vt -3.000000 4.633362
vt -2.000000 4.633362
vt 2.000000 1.099914
vt 3.000000 1.099914
vt 2.000000 1.400086
vt 3.000000 1.400086
s 1
usemtl VirtualTop.109
f 1/1/1 2/2/1 3/3/1
f 3/3/1 2/2/1 4/4/1
f 4/4/1 5/5/1 3/3/1
f 6/6/1 3/3/1 5/5/1
f 7/7/1 4/4/1 2/2/1
f 2/2/1 8/8/1 7/7/1
f 9/9/1 8/8/1 2/2/1
f 10/10/1 7/7/1 8/8/1
f 8/8/1 11/11/1 10/10/1
f 12/12/1 11/11/1 8/8/1
f 13/13/1 10/10/1 11/11/1
f 11/11/1 14/14/1 13/13/1
f 15/15/1 14/14/1 11/11/1
f 16/16/1 13/13/1 14/14/1
f 14/14/1 17/17/1 16/16/1
f 18/18/1 16/16/1 17/17/1
f 19/19/1 17/17/1 14/14/1
f 20/20/2 21/21/2 22/22/2
f 22/22/2 21/21/2 23/23/2
f 24/24/2 23/23/2 21/21/2
f 21/21/2 25/25/2 24/24/2
f 26/26/2 24/24/2 25/25/2
f 23/23/2 27/27/2 22/22/2
f 28/28/2 22/22/2 27/27/2
f 29/29/2 22/22/2 28/28/2
f 27/27/2 30/30/2 28/28/2
f 31/31/2 28/28/2 30/30/2
f 32/32/2 28/28/2 31/31/2
f 30/30/2 33/33/2 31/31/2
f 34/34/2 31/31/2 33/33/2
f 35/35/2 31/31/2 34/34/2
f 33/33/2 36/36/2 34/34/2
f 37/37/2 34/34/2 36/36/2
f 38/38/2 34/34/2 37/37/2
f 39/39/3 40/40/3 41/41/3
f 42/42/3 41/41/3 40/40/3
f 43/43/4 44/44/4 45/45/4
f 46/46/4 45/45/4 44/44/4
f 47/47/3 48/48/3 49/49/3
f 50/50/3 49/49/3 48/48/3
f 51/51/4 52/52/4 53/53/4
f 54/54/4 53/53/4 52/52/4
f 55/55/3 56/56/3 57/57/3
f 58/58/3 57/57/3 56/56/3
f 59/59/4 60/60/4 61/61/4
f 62/62/4 61/61/4 60/60/4
f 63/63/3 64/64/3 65/65/3
f 66/66/3 65/65/3 64/64/3
f 67/67/4 68/68/4 69/69/4
f 70/70/4 69/69/4 68/68/4
f 71/71/3 72/72/3 73/73/3
f 74/74/3 73/73/3 72/72/3
f 75/75/4 76/76/4 77/77/4
f 78/78/4 77/77/4 76/76/4
f 79/79/3 80/80/3 81/81/3
f 82/82/3 81/81/3 80/80/3
f 83/83/4 84/84/4 85/85/4
f 86/86/4 85/85/4 84/84/4
f 87/87/5 88/88/5 89/89/5
f 90/90/5 89/89/5 88/88/5
